static_grf.mot
version=1
nRows=30
nColumns 19
inDegrees=yes
endheader
time	1_ground_force_vx	1_ground_force_vy	1_ground_force_vz	1_ground_force_px	1_ground_force_py	1_ground_force_pz	1_ground_torque_x	1_ground_torque_y	1_ground_torque_z	2_ground_force_vx	2_ground_force_vy	2_ground_force_vz	2_ground_force_px	2_ground_force_py	2_ground_force_pz	2_ground_torque_x	2_ground_torque_y	2_ground_torque_z
            1.002500	            1.134680	          399.960648	          -28.874649	           -0.282464	            0.006274	           -0.419259	            0.006033	            2.126588	           -0.153526	           -7.507003	          383.081370	           31.967073	           -0.272030	            0.005468	           -0.688302	            0.047294	           -2.413419	           -0.201393
            1.003000	            1.180604	          400.140757	          -28.828133	           -0.282630	            0.006273	           -0.419085	            0.006195	            2.099757	           -0.151277	           -7.456125	          381.976299	           32.056967	           -0.272243	            0.005467	           -0.688178	            0.046875	           -2.401392	           -0.201534
            1.003500	            1.272125	          401.042072	          -28.824496	           -0.282593	            0.006272	           -0.418761	            0.006850	            2.159454	           -0.155209	           -7.598189	          382.345641	           31.635988	           -0.272220	            0.005466	           -0.687974	            0.046941	           -2.362106	           -0.195445
            1.004000	            1.134662	          400.681514	          -28.825701	           -0.282333	            0.006273	           -0.419052	            0.005978	            2.110829	           -0.151857	           -7.739944	          382.712410	           31.918931	           -0.272281	            0.005467	           -0.688211	            0.047271	           -2.337359	           -0.194940
            1.004500	            1.181302	          400.680147	          -28.504823	           -0.282655	            0.006273	           -0.419016	            0.006310	            2.140090	           -0.152248	           -7.736621	          381.791646	           31.915645	           -0.272066	            0.005466	           -0.687808	            0.048711	           -2.403829	           -0.200947
            1.005000	            1.363958	          400.861658	          -28.779641	           -0.282320	            0.006273	           -0.419063	            0.007427	            2.182843	           -0.156716	           -7.503824	          382.161838	           31.635292	           -0.271985	            0.005467	           -0.687953	            0.047063	           -2.396870	           -0.198413
            1.005500	            1.088657	          400.321367	          -28.918845	           -0.282559	            0.006273	           -0.419163	            0.005877	            2.161073	           -0.156114	           -7.414092	          383.266853	           31.686122	           -0.271912	            0.005469	           -0.688324	            0.047215	           -2.440740	           -0.201785
            1.006000	            1.226234	          400.681728	          -28.871784	           -0.282271	            0.006273	           -0.419056	            0.006535	            2.135479	           -0.153875	           -7.506442	          382.898066	           31.731776	           -0.272058	            0.005469	           -0.688479	            0.046798	           -2.387132	           -0.197828
            1.006500	            1.134761	          400.140748	          -28.828020	           -0.282854	            0.006273	           -0.418991	            0.006188	            2.182174	           -0.157214	           -7.506483	          382.898401	           31.637920	           -0.272154	            0.005469	           -0.688576	            0.047164	           -2.405802	           -0.198785
            1.007000	            0.951632	          400.680889	          -28.687678	           -0.282544	            0.006272	           -0.418852	            0.004984	            2.098695	           -0.150261	           -7.363816	          382.345482	           31.917457	           -0.271953	            0.005468	           -0.688073	            0.046949	           -2.437713	           -0.203496
            1.007500	            1.180667	          401.041661	          -28.732557	           -0.282317	            0.006272	           -0.418753	            0.006439	            2.186991	           -0.156687	           -7.786815	          382.712408	           31.872023	           -0.272088	            0.005468	           -0.688309	            0.047273	           -2.323405	           -0.193492
            1.008000	            1.089259	          400.140149	          -28.690338	           -0.282633	            0.006274	           -0.419259	            0.005859	            2.152167	           -0.154312	           -7.551195	          382.344638	           31.964465	           -0.272103	            0.005468	           -0.688315	            0.047949	           -2.427812	           -0.202968
            1.008500	            1.043318	          400.680907	          -28.687906	           -0.282478	            0.006272	           -0.418944	            0.005595	            2.148812	           -0.153850	           -7.505113	          382.529785	           31.730462	           -0.272035	            0.005468	           -0.688287	            0.047911	           -2.441963	           -0.202558
            1.009000	            1.180961	          400.680737	          -28.642391	           -0.282652	            0.006273	           -0.419078	            0.006328	            2.146851	           -0.153466	           -7.458263	          382.529954	           31.730442	           -0.272103	            0.005467	           -0.688046	            0.045913	           -2.354853	           -0.195332
            1.009500	            1.226348	          400.681532	          -28.825928	           -0.282643	            0.006273	           -0.419003	            0.006592	            2.153796	           -0.154949	           -7.645703	          382.529612	           31.636665	           -0.272155	            0.005467	           -0.688240	            0.046881	           -2.345544	           -0.193985
            1.010000	            0.859116	          400.862544	          -29.007669	           -0.282668	            0.006273	           -0.419188	            0.004508	            2.103563	           -0.152220	           -7.739944	          382.712410	           31.918931	           -0.272042	            0.005469	           -0.688507	            0.046588	           -2.303592	           -0.192124
            1.010500	            0.997541	          400.320366	          -28.689338	           -0.282481	            0.006273	           -0.419187	            0.005337	            2.141662	           -0.153484	           -7.504366	          382.344975	           31.917517	           -0.272058	            0.005467	           -0.688120	            0.047327	           -2.411280	           -0.201290
            1.011000	            1.134728	          400.320983	          -28.827247	           -0.282603	            0.006274	           -0.419246	            0.006112	            2.156309	           -0.155277	           -7.600183	          382.898063	           31.637959	           -0.271967	            0.005469	           -0.688625	            0.046814	           -2.358511	           -0.194878
            1.011500	            1.134563	          401.222342	          -28.823382	           -0.282402	            0.006273	           -0.418971	            0.006053	            2.140589	           -0.153778	           -7.737848	          382.159151	           32.151600	           -0.272377	            0.005467	           -0.688245	            0.047963	           -2.368816	           -0.199292
            1.012000	            0.997343	          401.401960	          -28.684700	           -0.282409	            0.006272	           -0.418838	            0.005154	            2.074361	           -0.148237	           -7.503119	          381.977302	           31.728490	           -0.272259	            0.005466	           -0.688081	            0.046219	           -2.352977	           -0.195447
            1.012500	            1.180619	          400.681326	          -28.779959	           -0.282513	            0.006273	           -0.419187	            0.006279	            2.131017	           -0.153066	           -7.505715	          382.713423	           31.871903	           -0.272275	            0.005467	           -0.688164	            0.046462	           -2.369080	           -0.197294
            1.013000	            1.272272	          400.861640	          -28.779413	           -0.282561	            0.006273	           -0.419064	            0.006992	            2.202866	           -0.158152	           -7.598045	          382.344469	           31.964485	           -0.272261	            0.005466	           -0.687875	            0.047214	           -2.375867	           -0.198626
            1.013500	            0.860060	          400.680675	          -28.641595	           -0.282499	            0.006273	           -0.419083	            0.004604	            2.144989	           -0.153329	           -7.502433	          381.792994	           31.774762	           -0.272322	            0.005465	           -0.687813	            0.046651	           -2.374031	           -0.197579
            1.014000	            1.318522	          400.500528	          -28.643505	           -0.282749	            0.006272	           -0.418774	            0.007120	            2.162725	           -0.154677	           -7.550530	          382.160497	           31.963808	           -0.272277	            0.005466	           -0.688099	            0.047299	           -2.393999	           -0.200233
            1.014500	            0.997280	          400.501056	          -28.780276	           -0.282558	            0.006273	           -0.419076	            0.005258	            2.111384	           -0.151725	           -7.363857	          382.345817	           31.823601	           -0.272065	            0.005467	           -0.688124	            0.045857	           -2.381010	           -0.198177
            1.015000	            0.814363	          400.500234	          -28.596398	           -0.282501	            0.006274	           -0.419247	            0.004135	            2.033703	           -0.145210	           -7.410728	          382.345815	           31.776693	           -0.272121	            0.005467	           -0.688124	            0.045647	           -2.355114	           -0.195733
            1.015500	            1.088412	          401.042626	          -28.961609	           -0.282560	            0.006273	           -0.419012	            0.005921	            2.181683	           -0.157552	           -7.549866	          381.976296	           31.963151	           -0.272452	            0.005466	           -0.688031	            0.046482	           -2.351709	           -0.196787
            1.016000	            1.088559	          400.862195	          -28.916526	           -0.282723	            0.006273	           -0.419081	            0.005932	            2.184501	           -0.157581	           -7.646306	          382.713251	           31.778107	           -0.272188	            0.005467	           -0.688066	            0.046406	           -2.322711	           -0.192863
            1.016500	            0.996855	          401.583043	          -28.867350	           -0.282741	            0.006271	           -0.418549	            0.005380	            2.167171	           -0.155785	           -7.457557	          382.345479	           31.823641	           -0.272248	            0.005467	           -0.688267	            0.047775	           -2.449411	           -0.203871
            1.017000	            0.997133	          400.681488	          -28.825360	           -0.282719	            0.006272	           -0.418959	            0.005295	            2.127703	           -0.153069	           -7.599395	          382.712918	           31.918871	           -0.272077	            0.005468	           -0.688359	            0.047088	           -2.371387	           -0.197777
